Coordinates
version=1
nRows=6
nColumns=36
inDegrees=yes

Units are S.I. units (second, meters, Newtons, ...)
If the header above contains a line with 'inDegrees', this indicates whether rotational values are in degrees (yes) or radians (no).

endheader
time	pelvis_tilt	pelvis_list	pelvis_rotation	pelvis_tx	pelvis_ty	pelvis_tz	hip_flexion_r	hip_adduction_r	hip_rotation_r	knee_angle_r	knee_angle_r_beta	ankle_angle_r	subtalar_angle_r	mtp_angle_r	hip_flexion_l	hip_adduction_l	hip_rotation_l	knee_angle_l	knee_angle_l_beta	ankle_angle_l	subtalar_angle_l	mtp_angle_l	lumbar_extension	lumbar_bending	lumbar_rotation	arm_flex_r	arm_add_r	arm_rot_r	elbow_flex_r	pro_sup_r	arm_flex_l	arm_add_l	arm_rot_l	elbow_flex_l	pro_sup_l
      0.00000000	     -1.61273170	      0.99235355	      0.76701312	      0.35881569	      0.88675770	     -0.03429729	     -1.70489818	     -7.08545267	     -6.08329868	      2.83308829	      0.04944672	      6.74388027	     -4.15134056	     -6.06065480	     -0.49469360	     -7.38484418	     -2.17361684	      2.72389143	      0.04754087	      7.12004601	      2.87762493	     -6.06065480	     -2.73095839	      2.95218688	     -4.10309078	     29.54705966	      6.28918424	     60.64414086	    117.54073909	    108.57938268	     34.94488690	      5.87852846	     64.07339472	    120.69530139	    102.22289440
      0.01666670	     -3.27449875	      0.75850486	      0.61867069	      0.36527778	      0.88253000	     -0.03252171	     -0.58914228	     -6.66603866	     -5.88043694	      2.24817927	      0.03923813	      9.24591783	     -1.75069933	     -6.11920201	      0.98171253	     -7.19128682	     -2.70519580	      2.22590829	      0.03884943	      7.59323977	      3.88613499	     -6.11920201	      0.17542814	      3.12297672	     -3.65560821	     29.31079400	      5.95460998	     61.43382054	    120.01212516	    107.80960736	     36.14569402	      5.56059589	     65.78785727	    123.37608194	    102.07506641
      0.03333330	     -3.66388196	      1.01692744	      0.40210264	      0.36040531	      0.88286582	     -0.03416788	     -0.35604396	     -7.01838129	     -6.35898841	      1.63665726	      0.02856506	      9.44133849	     -1.86050866	     -6.14430984	      1.35663742	     -6.98557277	     -3.60073241	      1.93567008	      0.03378382	      7.14989779	      3.98939420	     -6.14430984	      0.04505763	      2.83536401	     -2.60642855	     28.46965140	      5.56665771	     62.30203943	    120.76199910	    107.41291344	     36.85161538	      5.30634823	     66.69590092	    125.45428349	    101.66273298
      0.05000000	     -3.03459591	      1.31052618	      0.09464614	      0.35827788	      0.88658642	     -0.03279160	     -1.04525912	     -7.42367353	     -6.58740470	      1.11315191	      0.01942817	      9.83629156	     -0.82113816	     -6.63057962	      0.46365311	     -6.74373063	     -4.57894794	      1.52417697	      0.02660191	      6.78158138	      4.36954015	     -6.63057962	     -0.99029450	      2.37535973	     -1.37996894	     28.04777317	      5.13960747	     63.45287883	    120.90752584	    102.23447968	     38.16249126	      5.62165454	     67.99870475	    125.30194812	     94.31215792
      0.06666670	     -2.78959888	      1.30735543	     -0.26029312	      0.35842880	      0.88459266	     -0.03292383	     -1.20181026	     -7.45636561	     -6.54280269	      0.91614491	      0.01598975	      9.94671593	     -0.60924825	     -7.03471499	      0.09701834	     -6.77844800	     -4.92500715	      1.30711935	      0.02281354	      6.65120079	      4.34806420	     -7.03471499	     -1.50331192	      2.53946017	     -0.51762265	     27.72947467	      4.95617953	     64.23871961	    120.94258790	    100.94021135	     38.79432152	      6.01987252	     68.82733760	    125.19335956	     88.96058678
      0.08333330	     -2.52807737	      1.27586634	     -0.44239927	      0.36228893	      0.88749624	     -0.02995436	     -1.59830586	     -7.30995344	     -6.58241637	      0.77203250	      0.01347451	     10.15081400	     -0.20145418	     -7.13742678	     -0.35317154	     -6.95555119	     -4.96129166	      1.11978967	      0.01954402	      6.79858190	      4.74657537	     -7.13742678	     -1.67008399	      2.57059220	      0.25591588	     27.26619764	      4.84155739	     64.19392135	    120.50803734	     98.50346801	     38.94527086	      6.47214506	     69.46476838	    125.02103918	     83.69905572
